<svg width="512" height="512" viewBox="0 0 512 512" fill="none" xmlns="http://www.w3.org/2000/svg" role="img" aria-label="FeedbackPro">
  <rect width="512" height="512" fill="#1B7A43"/>
  <path d="M132 132h248a44 44 0 0 1 44 44v152a44 44 0 0 1-44 44H250l-70 60a12 12 0 0 1-20-9v-51h-28a44 44 0 0 1-44-44V176a44 44 0 0 1 44-44z" fill="#FFFFFF"/>
  <rect x="168" y="264" width="38" height="52" rx="10" fill="#1B7A43"/>
  <rect x="237" y="224" width="38" height="92" rx="10" fill="#1B7A43"/>
  <rect x="306" y="184" width="38" height="132" rx="10" fill="#1B7A43"/>
  <circle cx="325" cy="162" r="15" fill="#F4B400"/>
</svg>
